<mxfile host="Electron" modified="2023-06-08T18:55:34.186Z" agent="Mozilla/5.0 (Windows NT 10.0; Win64; x64) AppleWebKit/537.36 (KHTML, like Gecko) draw.io/21.2.8 Chrome/112.0.5615.165 Electron/24.2.0 Safari/537.36" etag="Ve33KO9OWh8fFH3WzQVM" version="21.2.8" type="device" pages="2">
  <diagram id="LZKcX6WQHk62B-IT3wh8" name="Approach">
    <mxGraphModel dx="1900" dy="12" grid="1" gridSize="10" guides="1" tooltips="1" connect="1" arrows="1" fold="1" page="0" pageScale="1" pageWidth="827" pageHeight="1169" math="0" shadow="0">
      <root>
        <mxCell id="0" />
        <mxCell id="1" parent="0" />
        <mxCell id="dFNtb1b9l759t3CY5BOG-7" value="GitHub" style="text;strokeColor=none;fillColor=none;html=1;verticalAlign=middle;align=center;spacing=0;fontStyle=1;fontSize=14;" parent="1" vertex="1">
          <mxGeometry x="-679" y="735" width="100" height="30" as="geometry" />
        </mxCell>
        <mxCell id="dFNtb1b9l759t3CY5BOG-11" value="" style="endArrow=none;dashed=1;html=1;rounded=0;fontFamily=Shadows Into Light;fontSize=14;strokeColor=#666666;strokeWidth=2;endFill=0;fontColor=#000000;" parent="1" source="dFNtb1b9l759t3CY5BOG-45" target="dFNtb1b9l759t3CY5BOG-70" edge="1">
          <mxGeometry width="50" height="50" relative="1" as="geometry">
            <mxPoint x="-629" y="900" as="sourcePoint" />
            <mxPoint x="-629" y="1020" as="targetPoint" />
          </mxGeometry>
        </mxCell>
        <mxCell id="dFNtb1b9l759t3CY5BOG-16" value="" style="endArrow=none;dashed=1;html=1;rounded=0;fontFamily=Shadows Into Light;fontSize=14;strokeColor=#666666;strokeWidth=2;endFill=0;exitX=0.5;exitY=1;exitDx=0;exitDy=0;fontColor=#000000;" parent="1" target="dFNtb1b9l759t3CY5BOG-15" edge="1">
          <mxGeometry width="50" height="50" relative="1" as="geometry">
            <mxPoint x="-629" y="766.55" as="sourcePoint" />
            <mxPoint x="-629" y="1020" as="targetPoint" />
          </mxGeometry>
        </mxCell>
        <mxCell id="dFNtb1b9l759t3CY5BOG-15" value="" style="html=1;points=[];perimeter=orthogonalPerimeter;outlineConnect=0;targetShapes=umlLifeline;portConstraint=eastwest;newEdgeStyle={&quot;edgeStyle&quot;:&quot;elbowEdgeStyle&quot;,&quot;elbow&quot;:&quot;vertical&quot;,&quot;curved&quot;:0,&quot;rounded&quot;:0};" parent="1" vertex="1">
          <mxGeometry x="-634" y="810" width="10" height="60" as="geometry" />
        </mxCell>
        <mxCell id="dFNtb1b9l759t3CY5BOG-17" value="" style="endArrow=none;dashed=1;html=1;rounded=0;fontFamily=Shadows Into Light;fontSize=14;strokeColor=#666666;strokeWidth=2;endFill=0;exitX=0.5;exitY=1;exitDx=0;exitDy=0;fontColor=#000000;" parent="1" source="dFNtb1b9l759t3CY5BOG-18" target="dFNtb1b9l759t3CY5BOG-19" edge="1">
          <mxGeometry width="50" height="50" relative="1" as="geometry">
            <mxPoint x="-261" y="624.55" as="sourcePoint" />
            <mxPoint x="-261" y="874.55" as="targetPoint" />
          </mxGeometry>
        </mxCell>
        <mxCell id="dFNtb1b9l759t3CY5BOG-18" value="Remote Host" style="text;strokeColor=none;fillColor=none;html=1;verticalAlign=middle;align=center;spacing=0;fontStyle=1;fontSize=14;" parent="1" vertex="1">
          <mxGeometry x="-311" y="594.55" width="100" height="30" as="geometry" />
        </mxCell>
        <mxCell id="dFNtb1b9l759t3CY5BOG-19" value="" style="html=1;points=[];perimeter=orthogonalPerimeter;outlineConnect=0;targetShapes=umlLifeline;portConstraint=eastwest;newEdgeStyle={&quot;edgeStyle&quot;:&quot;elbowEdgeStyle&quot;,&quot;elbow&quot;:&quot;vertical&quot;,&quot;curved&quot;:0,&quot;rounded&quot;:0};" parent="1" vertex="1">
          <mxGeometry x="-266" y="650" width="10" height="160" as="geometry" />
        </mxCell>
        <mxCell id="dFNtb1b9l759t3CY5BOG-21" value="generateKeys()" style="html=1;verticalAlign=bottom;labelBackgroundColor=none;endArrow=open;endFill=0;rounded=0;" parent="1" edge="1">
          <mxGeometry width="160" relative="1" as="geometry">
            <mxPoint x="-925" y="667" as="sourcePoint" />
            <mxPoint x="-265" y="667" as="targetPoint" />
          </mxGeometry>
        </mxCell>
        <mxCell id="dFNtb1b9l759t3CY5BOG-34" value="commit(public-key)" style="html=1;verticalAlign=bottom;labelBackgroundColor=none;endArrow=open;endFill=0;rounded=0;" parent="1" target="dFNtb1b9l759t3CY5BOG-15" edge="1">
          <mxGeometry x="0.4026" width="160" relative="1" as="geometry">
            <mxPoint x="-925" y="817" as="sourcePoint" />
            <mxPoint x="-650" y="817" as="targetPoint" />
            <mxPoint as="offset" />
          </mxGeometry>
        </mxCell>
        <mxCell id="dFNtb1b9l759t3CY5BOG-35" value="" style="html=1;points=[];perimeter=orthogonalPerimeter;outlineConnect=0;targetShapes=umlLifeline;portConstraint=eastwest;newEdgeStyle={&quot;edgeStyle&quot;:&quot;elbowEdgeStyle&quot;,&quot;elbow&quot;:&quot;vertical&quot;,&quot;curved&quot;:0,&quot;rounded&quot;:0};" parent="1" vertex="1">
          <mxGeometry x="-261" y="750" width="10" height="50" as="geometry" />
        </mxCell>
        <mxCell id="dFNtb1b9l759t3CY5BOG-36" value="key-store" style="text;whiteSpace=wrap;html=1;verticalAlign=middle;align=center;spacing=0;fontSize=10;fillColor=#CCCCCC;spacingTop=1;spacingLeft=0;spacingBottom=2;spacingRight=0;" parent="1" vertex="1">
          <mxGeometry x="-250" y="750" width="41" height="10" as="geometry" />
        </mxCell>
        <mxCell id="dFNtb1b9l759t3CY5BOG-37" value="" style="html=1;verticalAlign=bottom;labelBackgroundColor=none;endArrow=open;endFill=0;dashed=1;rounded=0;movable=1;resizable=1;rotatable=1;deletable=1;editable=1;locked=0;connectable=1;entryX=1;entryY=0.25;entryDx=0;entryDy=0;" parent="1" source="dFNtb1b9l759t3CY5BOG-19" target="dFNtb1b9l759t3CY5BOG-36" edge="1">
          <mxGeometry width="160" relative="1" as="geometry">
            <mxPoint x="-54.479999999999905" y="700" as="sourcePoint" />
            <mxPoint x="-221" y="740" as="targetPoint" />
            <Array as="points">
              <mxPoint x="-181" y="690" />
              <mxPoint x="-181" y="753" />
            </Array>
          </mxGeometry>
        </mxCell>
        <mxCell id="dFNtb1b9l759t3CY5BOG-38" value="" style="sketch=0;pointerEvents=1;shadow=0;dashed=0;html=1;strokeColor=none;fillColor=#006633;labelPosition=center;verticalLabelPosition=bottom;verticalAlign=top;outlineConnect=0;align=center;shape=mxgraph.office.security.key_permissions;fontSize=10;rotation=90;" parent="1" vertex="1">
          <mxGeometry x="-705" y="787" width="10" height="20" as="geometry" />
        </mxCell>
        <mxCell id="dFNtb1b9l759t3CY5BOG-29" value="" style="sketch=0;pointerEvents=1;shadow=0;dashed=0;html=1;strokeColor=none;fillColor=#FF3333;labelPosition=center;verticalLabelPosition=bottom;verticalAlign=top;outlineConnect=0;align=center;shape=mxgraph.office.security.key_permissions;fontSize=10;rotation=90;" parent="1" vertex="1">
          <mxGeometry x="-221" y="673" width="10" height="20" as="geometry" />
        </mxCell>
        <mxCell id="dFNtb1b9l759t3CY5BOG-30" value="private-key" style="text;whiteSpace=wrap;html=1;verticalAlign=middle;align=center;spacing=0;fontSize=10;fillColor=none;" parent="1" vertex="1">
          <mxGeometry x="-231" y="690" width="40" height="20" as="geometry" />
        </mxCell>
        <mxCell id="dFNtb1b9l759t3CY5BOG-41" value="AGE-encryption-tool" style="text;whiteSpace=wrap;html=1;verticalAlign=middle;align=center;spacing=0;fontSize=10;fillColor=#CCCCCC;spacingTop=1;spacingLeft=0;spacingBottom=2;spacingRight=0;" parent="1" vertex="1">
          <mxGeometry x="-255" y="650" width="95" height="10" as="geometry" />
        </mxCell>
        <mxCell id="dFNtb1b9l759t3CY5BOG-44" value="clone()" style="html=1;verticalAlign=bottom;labelBackgroundColor=none;endArrow=open;endFill=0;rounded=0;" parent="1" target="dFNtb1b9l759t3CY5BOG-45" edge="1">
          <mxGeometry x="0.4026" width="160" relative="1" as="geometry">
            <mxPoint x="-925" y="901" as="sourcePoint" />
            <mxPoint x="-680" y="900" as="targetPoint" />
            <mxPoint as="offset" />
          </mxGeometry>
        </mxCell>
        <mxCell id="dFNtb1b9l759t3CY5BOG-45" value="" style="html=1;points=[];perimeter=orthogonalPerimeter;outlineConnect=0;targetShapes=umlLifeline;portConstraint=eastwest;newEdgeStyle={&quot;edgeStyle&quot;:&quot;elbowEdgeStyle&quot;,&quot;elbow&quot;:&quot;vertical&quot;,&quot;curved&quot;:0,&quot;rounded&quot;:0};" parent="1" vertex="1">
          <mxGeometry x="-634" y="890" width="10" height="60" as="geometry" />
        </mxCell>
        <mxCell id="dFNtb1b9l759t3CY5BOG-46" value="" style="html=1;verticalAlign=bottom;labelBackgroundColor=none;endArrow=open;endFill=0;dashed=1;rounded=0;" parent="1" source="dFNtb1b9l759t3CY5BOG-45" edge="1">
          <mxGeometry width="160" relative="1" as="geometry">
            <mxPoint x="-480" y="940" as="sourcePoint" />
            <mxPoint x="-925" y="941" as="targetPoint" />
          </mxGeometry>
        </mxCell>
        <mxCell id="dFNtb1b9l759t3CY5BOG-49" value="" style="endArrow=none;dashed=1;html=1;rounded=0;fontFamily=Shadows Into Light;fontSize=14;strokeColor=#666666;strokeWidth=2;endFill=0;exitX=0.5;exitY=1;exitDx=0;exitDy=0;fontColor=#000000;" parent="1" source="dFNtb1b9l759t3CY5BOG-50" target="dFNtb1b9l759t3CY5BOG-51" edge="1">
          <mxGeometry width="50" height="50" relative="1" as="geometry">
            <mxPoint x="-930" y="624.55" as="sourcePoint" />
            <mxPoint x="-930" y="809.55" as="targetPoint" />
          </mxGeometry>
        </mxCell>
        <mxCell id="dFNtb1b9l759t3CY5BOG-50" value="Admin" style="text;strokeColor=none;fillColor=none;html=1;verticalAlign=middle;align=center;spacing=0;fontStyle=1;fontSize=14;" parent="1" vertex="1">
          <mxGeometry x="-980" y="594.55" width="100" height="30" as="geometry" />
        </mxCell>
        <mxCell id="dFNtb1b9l759t3CY5BOG-51" value="" style="html=1;points=[];perimeter=orthogonalPerimeter;outlineConnect=0;targetShapes=umlLifeline;portConstraint=eastwest;newEdgeStyle={&quot;edgeStyle&quot;:&quot;elbowEdgeStyle&quot;,&quot;elbow&quot;:&quot;vertical&quot;,&quot;curved&quot;:0,&quot;rounded&quot;:0};" parent="1" vertex="1">
          <mxGeometry x="-935" y="660" width="10" height="180" as="geometry" />
        </mxCell>
        <mxCell id="dFNtb1b9l759t3CY5BOG-33" value="" style="html=1;verticalAlign=bottom;labelBackgroundColor=none;endArrow=open;endFill=0;dashed=1;rounded=0;" parent="1" source="dFNtb1b9l759t3CY5BOG-19" edge="1">
          <mxGeometry width="160" relative="1" as="geometry">
            <mxPoint x="-685" y="712" as="sourcePoint" />
            <mxPoint x="-925" y="712" as="targetPoint" />
          </mxGeometry>
        </mxCell>
        <mxCell id="dFNtb1b9l759t3CY5BOG-26" value="public-key" style="text;whiteSpace=wrap;html=1;verticalAlign=middle;align=center;spacing=0;fontSize=10;" parent="1" vertex="1">
          <mxGeometry x="-830" y="693" width="60" height="20" as="geometry" />
        </mxCell>
        <mxCell id="dFNtb1b9l759t3CY5BOG-23" value="" style="sketch=0;pointerEvents=1;shadow=0;dashed=0;html=1;strokeColor=none;fillColor=#006633;labelPosition=center;verticalLabelPosition=bottom;verticalAlign=top;outlineConnect=0;align=center;shape=mxgraph.office.security.key_permissions;fontSize=10;rotation=90;" parent="1" vertex="1">
          <mxGeometry x="-770" y="693" width="10" height="20" as="geometry" />
        </mxCell>
        <mxCell id="dFNtb1b9l759t3CY5BOG-55" value="" style="html=1;points=[];perimeter=orthogonalPerimeter;outlineConnect=0;targetShapes=umlLifeline;portConstraint=eastwest;newEdgeStyle={&quot;edgeStyle&quot;:&quot;elbowEdgeStyle&quot;,&quot;elbow&quot;:&quot;vertical&quot;,&quot;curved&quot;:0,&quot;rounded&quot;:0};" parent="1" vertex="1">
          <mxGeometry x="-935" y="890" width="10" height="260" as="geometry" />
        </mxCell>
        <mxCell id="dFNtb1b9l759t3CY5BOG-56" value="" style="group" parent="1" vertex="1" connectable="0">
          <mxGeometry x="-770" y="920" width="75" height="20" as="geometry" />
        </mxCell>
        <mxCell id="dFNtb1b9l759t3CY5BOG-47" value="public-key" style="text;whiteSpace=wrap;html=1;verticalAlign=middle;align=center;spacing=0;fontSize=10;" parent="dFNtb1b9l759t3CY5BOG-56" vertex="1">
          <mxGeometry width="60" height="20" as="geometry" />
        </mxCell>
        <mxCell id="dFNtb1b9l759t3CY5BOG-48" value="" style="sketch=0;pointerEvents=1;shadow=0;dashed=0;html=1;strokeColor=none;fillColor=#006633;labelPosition=center;verticalLabelPosition=bottom;verticalAlign=top;outlineConnect=0;align=center;shape=mxgraph.office.security.key_permissions;fontSize=10;rotation=90;" parent="dFNtb1b9l759t3CY5BOG-56" vertex="1">
          <mxGeometry x="60" width="10" height="20" as="geometry" />
        </mxCell>
        <mxCell id="dFNtb1b9l759t3CY5BOG-61" value="" style="html=1;points=[];perimeter=orthogonalPerimeter;outlineConnect=0;targetShapes=umlLifeline;portConstraint=eastwest;newEdgeStyle={&quot;edgeStyle&quot;:&quot;elbowEdgeStyle&quot;,&quot;elbow&quot;:&quot;vertical&quot;,&quot;curved&quot;:0,&quot;rounded&quot;:0};" parent="1" vertex="1">
          <mxGeometry x="-930" y="1045" width="10" height="50" as="geometry" />
        </mxCell>
        <mxCell id="dFNtb1b9l759t3CY5BOG-62" value="SOPS" style="text;whiteSpace=wrap;html=1;verticalAlign=middle;align=center;spacing=0;fontSize=10;fillColor=#CCCCCC;spacingTop=1;spacingLeft=0;spacingBottom=2;spacingRight=0;" parent="1" vertex="1">
          <mxGeometry x="-920" y="1045" width="30" height="10" as="geometry" />
        </mxCell>
        <mxCell id="dFNtb1b9l759t3CY5BOG-64" value="" style="html=1;verticalAlign=bottom;labelBackgroundColor=none;endArrow=open;endFill=0;rounded=0;movable=1;resizable=1;rotatable=1;deletable=1;editable=1;locked=0;connectable=1;entryX=1;entryY=0.5;entryDx=0;entryDy=0;" parent="1" target="dFNtb1b9l759t3CY5BOG-62" edge="1">
          <mxGeometry width="160" relative="1" as="geometry">
            <mxPoint x="-925" y="1020" as="sourcePoint" />
            <mxPoint x="-790" y="1070" as="targetPoint" />
            <Array as="points">
              <mxPoint x="-790" y="1020" />
              <mxPoint x="-790" y="1050" />
            </Array>
          </mxGeometry>
        </mxCell>
        <mxCell id="dFNtb1b9l759t3CY5BOG-70" value="" style="html=1;points=[];perimeter=orthogonalPerimeter;outlineConnect=0;targetShapes=umlLifeline;portConstraint=eastwest;newEdgeStyle={&quot;edgeStyle&quot;:&quot;elbowEdgeStyle&quot;,&quot;elbow&quot;:&quot;vertical&quot;,&quot;curved&quot;:0,&quot;rounded&quot;:0};" parent="1" vertex="1">
          <mxGeometry x="-634" y="1131" width="10" height="99" as="geometry" />
        </mxCell>
        <mxCell id="dFNtb1b9l759t3CY5BOG-71" value="" style="endArrow=none;dashed=1;html=1;rounded=0;fontFamily=Shadows Into Light;fontSize=14;strokeColor=#666666;strokeWidth=2;endFill=0;fontColor=#000000;" parent="1" source="dFNtb1b9l759t3CY5BOG-51" target="dFNtb1b9l759t3CY5BOG-55" edge="1">
          <mxGeometry width="50" height="50" relative="1" as="geometry">
            <mxPoint x="-1030" y="830" as="sourcePoint" />
            <mxPoint x="-1030" y="1095" as="targetPoint" />
          </mxGeometry>
        </mxCell>
        <mxCell id="dFNtb1b9l759t3CY5BOG-72" value="" style="endArrow=none;dashed=1;html=1;rounded=0;fontFamily=Shadows Into Light;fontSize=14;strokeColor=#666666;strokeWidth=2;endFill=0;fontColor=#000000;" parent="1" source="dFNtb1b9l759t3CY5BOG-55" edge="1">
          <mxGeometry width="50" height="50" relative="1" as="geometry">
            <mxPoint x="-900" y="1160" as="sourcePoint" />
            <mxPoint x="-930" y="1200" as="targetPoint" />
          </mxGeometry>
        </mxCell>
        <mxCell id="dFNtb1b9l759t3CY5BOG-73" value="" style="endArrow=none;dashed=1;html=1;rounded=0;fontFamily=Shadows Into Light;fontSize=14;strokeColor=#666666;strokeWidth=2;endFill=0;fontColor=#000000;" parent="1" source="dFNtb1b9l759t3CY5BOG-15" target="dFNtb1b9l759t3CY5BOG-45" edge="1">
          <mxGeometry width="50" height="50" relative="1" as="geometry">
            <mxPoint x="-589" y="890" as="sourcePoint" />
            <mxPoint x="-589" y="940" as="targetPoint" />
          </mxGeometry>
        </mxCell>
        <mxCell id="dFNtb1b9l759t3CY5BOG-74" value="commit(encrypted-credentials-file)" style="html=1;verticalAlign=bottom;labelBackgroundColor=none;endArrow=open;endFill=0;rounded=0;" parent="1" edge="1">
          <mxGeometry x="-0.0034" width="160" relative="1" as="geometry">
            <mxPoint x="-925" y="1141" as="sourcePoint" />
            <mxPoint x="-634" y="1141" as="targetPoint" />
            <mxPoint as="offset" />
          </mxGeometry>
        </mxCell>
        <mxCell id="dFNtb1b9l759t3CY5BOG-69" value="" style="sketch=0;pointerEvents=1;shadow=0;dashed=0;html=1;strokeColor=none;fillColor=#006633;labelPosition=center;verticalLabelPosition=bottom;verticalAlign=top;outlineConnect=0;align=center;shape=mxgraph.office.security.key_permissions;fontSize=10;rotation=90;" parent="1" vertex="1">
          <mxGeometry x="-864" y="994" width="10" height="20" as="geometry" />
        </mxCell>
        <mxCell id="dFNtb1b9l759t3CY5BOG-68" value="encrypt(public-key, credentials)" style="text;whiteSpace=wrap;html=1;verticalAlign=middle;align=center;spacing=0;fontSize=10;" parent="1" vertex="1">
          <mxGeometry x="-931" y="1003" width="154" height="20" as="geometry" />
        </mxCell>
        <mxCell id="dFNtb1b9l759t3CY5BOG-75" value="" style="html=1;verticalAlign=bottom;labelBackgroundColor=none;endArrow=open;endFill=0;rounded=0;movable=1;resizable=1;rotatable=1;deletable=1;editable=1;locked=0;connectable=1;dashed=1;" parent="1" target="dFNtb1b9l759t3CY5BOG-55" edge="1">
          <mxGeometry width="160" relative="1" as="geometry">
            <mxPoint x="-920" y="1080" as="sourcePoint" />
            <mxPoint x="-885" y="1110" as="targetPoint" />
            <Array as="points">
              <mxPoint x="-785" y="1080" />
              <mxPoint x="-785" y="1110" />
            </Array>
          </mxGeometry>
        </mxCell>
        <mxCell id="dFNtb1b9l759t3CY5BOG-76" value="&lt;span style=&quot;color: rgb(0, 0, 0); font-family: Helvetica; font-size: 11px; font-style: normal; font-variant-ligatures: normal; font-variant-caps: normal; font-weight: 400; letter-spacing: normal; orphans: 2; text-align: center; text-indent: 0px; text-transform: none; widows: 2; word-spacing: 0px; -webkit-text-stroke-width: 0px; background-color: rgb(255, 255, 255); text-decoration-thickness: initial; text-decoration-style: initial; text-decoration-color: initial; float: none; display: inline !important;&quot;&gt;encrypted-credentials-file&lt;/span&gt;" style="text;whiteSpace=wrap;html=1;" parent="1" vertex="1">
          <mxGeometry x="-914" y="1090" width="134" height="30" as="geometry" />
        </mxCell>
        <mxCell id="dFNtb1b9l759t3CY5BOG-77" value="" style="endArrow=none;dashed=1;html=1;rounded=0;fontFamily=Shadows Into Light;fontSize=14;strokeColor=#666666;strokeWidth=2;endFill=0;fontColor=#000000;" parent="1" source="dFNtb1b9l759t3CY5BOG-19" target="dFNtb1b9l759t3CY5BOG-84" edge="1">
          <mxGeometry width="50" height="50" relative="1" as="geometry">
            <mxPoint x="-230" y="950" as="sourcePoint" />
            <mxPoint x="-261" y="1190" as="targetPoint" />
          </mxGeometry>
        </mxCell>
        <mxCell id="dFNtb1b9l759t3CY5BOG-78" value="" style="endArrow=none;dashed=1;html=1;rounded=0;fontFamily=Shadows Into Light;fontSize=14;strokeColor=#666666;strokeWidth=2;endFill=0;fontColor=#000000;" parent="1" source="dFNtb1b9l759t3CY5BOG-70" edge="1">
          <mxGeometry width="50" height="50" relative="1" as="geometry">
            <mxPoint x="-570" y="1230" as="sourcePoint" />
            <mxPoint x="-629" y="1280" as="targetPoint" />
          </mxGeometry>
        </mxCell>
        <mxCell id="dFNtb1b9l759t3CY5BOG-81" value="" style="group" parent="1" vertex="1" connectable="0">
          <mxGeometry x="-629" y="1176" width="58" height="50" as="geometry" />
        </mxCell>
        <mxCell id="dFNtb1b9l759t3CY5BOG-79" value="" style="html=1;points=[];perimeter=orthogonalPerimeter;outlineConnect=0;targetShapes=umlLifeline;portConstraint=eastwest;newEdgeStyle={&quot;edgeStyle&quot;:&quot;elbowEdgeStyle&quot;,&quot;elbow&quot;:&quot;vertical&quot;,&quot;curved&quot;:0,&quot;rounded&quot;:0};" parent="dFNtb1b9l759t3CY5BOG-81" vertex="1">
          <mxGeometry width="10" height="50" as="geometry" />
        </mxCell>
        <mxCell id="dFNtb1b9l759t3CY5BOG-80" value="workflow" style="text;whiteSpace=wrap;html=1;verticalAlign=middle;align=center;spacing=0;fontSize=10;fillColor=#CCCCCC;spacingTop=1;spacingLeft=0;spacingBottom=2;spacingRight=0;" parent="dFNtb1b9l759t3CY5BOG-81" vertex="1">
          <mxGeometry x="10" width="48" height="10" as="geometry" />
        </mxCell>
        <mxCell id="dFNtb1b9l759t3CY5BOG-82" value="" style="html=1;verticalAlign=bottom;labelBackgroundColor=none;endArrow=open;endFill=0;rounded=0;movable=1;resizable=1;rotatable=1;deletable=1;editable=1;locked=0;connectable=1;" parent="1" source="dFNtb1b9l759t3CY5BOG-70" target="dFNtb1b9l759t3CY5BOG-80" edge="1">
          <mxGeometry width="160" relative="1" as="geometry">
            <mxPoint x="-610" y="1150" as="sourcePoint" />
            <mxPoint x="-560" y="1180" as="targetPoint" />
            <Array as="points">
              <mxPoint x="-520" y="1150" />
              <mxPoint x="-520" y="1181" />
            </Array>
          </mxGeometry>
        </mxCell>
        <mxCell id="dFNtb1b9l759t3CY5BOG-83" value="trigger" style="edgeLabel;html=1;align=center;verticalAlign=middle;resizable=0;points=[];" parent="dFNtb1b9l759t3CY5BOG-82" vertex="1" connectable="0">
          <mxGeometry x="-0.3043" y="-1" relative="1" as="geometry">
            <mxPoint as="offset" />
          </mxGeometry>
        </mxCell>
        <mxCell id="dFNtb1b9l759t3CY5BOG-84" value="" style="html=1;points=[];perimeter=orthogonalPerimeter;outlineConnect=0;targetShapes=umlLifeline;portConstraint=eastwest;newEdgeStyle={&quot;edgeStyle&quot;:&quot;elbowEdgeStyle&quot;,&quot;elbow&quot;:&quot;vertical&quot;,&quot;curved&quot;:0,&quot;rounded&quot;:0};" parent="1" vertex="1">
          <mxGeometry x="-266" y="1200" width="10" height="70" as="geometry" />
        </mxCell>
        <mxCell id="dFNtb1b9l759t3CY5BOG-85" value="updatePassword(encrypted-credentials-file)" style="html=1;verticalAlign=bottom;labelBackgroundColor=none;endArrow=open;endFill=0;rounded=0;" parent="1" target="dFNtb1b9l759t3CY5BOG-84" edge="1">
          <mxGeometry x="-0.0034" width="160" relative="1" as="geometry">
            <mxPoint x="-619" y="1219" as="sourcePoint" />
            <mxPoint x="-319" y="1219" as="targetPoint" />
            <mxPoint as="offset" />
          </mxGeometry>
        </mxCell>
        <mxCell id="dFNtb1b9l759t3CY5BOG-86" value="Server-Component" style="text;whiteSpace=wrap;html=1;verticalAlign=middle;align=center;spacing=0;fontSize=10;fillColor=#CCCCCC;spacingTop=1;spacingLeft=0;spacingBottom=2;spacingRight=0;" parent="1" vertex="1">
          <mxGeometry x="-255" y="1200" width="85" height="10" as="geometry" />
        </mxCell>
      </root>
    </mxGraphModel>
  </diagram>
  <diagram id="aXvVYiL5qjn1pr6ji903" name="Generate-Keys">
    <mxGraphModel dx="1194" dy="814" grid="1" gridSize="10" guides="1" tooltips="1" connect="0" arrows="1" fold="0" page="1" pageScale="1" pageWidth="827" pageHeight="1169" math="0" shadow="0">
      <root>
        <mxCell id="0" />
        <mxCell id="1" parent="0" />
        <mxCell id="aGkAZ5vbo31I6YQZTo5o-1" value="Remot Host" style="swimlane;horizontal=0;whiteSpace=wrap;html=1;container=0;strokeWidth=3;fontSize=14;" vertex="1" parent="1">
          <mxGeometry x="880" y="1376" width="310" height="510" as="geometry" />
        </mxCell>
        <mxCell id="aGkAZ5vbo31I6YQZTo5o-22" style="edgeStyle=none;curved=1;rounded=0;orthogonalLoop=1;jettySize=auto;html=1;endArrow=open;startSize=14;endSize=14;sourcePerimeterSpacing=8;targetPerimeterSpacing=8;entryX=1;entryY=0.5;entryDx=0;entryDy=0;exitX=-0.055;exitY=0.447;exitDx=0;exitDy=0;exitPerimeter=0;" edge="1" parent="1" source="aGkAZ5vbo31I6YQZTo5o-23" target="aGkAZ5vbo31I6YQZTo5o-18">
          <mxGeometry relative="1" as="geometry">
            <mxPoint x="900" y="1221" as="targetPoint" />
            <Array as="points">
              <mxPoint x="930" y="1210" />
            </Array>
          </mxGeometry>
        </mxCell>
        <mxCell id="aGkAZ5vbo31I6YQZTo5o-23" value="" style="shape=mxgraph.signs.people.man_1;html=1;pointerEvents=1;fillColor=none;strokeColor=default;verticalLabelPosition=bottom;verticalAlign=top;align=center;sketch=0;" vertex="1" parent="1">
          <mxGeometry x="960" y="1172" width="37" height="98" as="geometry" />
        </mxCell>
        <mxCell id="aGkAZ5vbo31I6YQZTo5o-2" value="" style="group" vertex="1" connectable="0" parent="1">
          <mxGeometry x="580" y="1110" width="150" height="160" as="geometry" />
        </mxCell>
        <mxCell id="aGkAZ5vbo31I6YQZTo5o-3" value="&lt;font style=&quot;&quot;&gt;&lt;span style=&quot;font-size: 12px;&quot;&gt;/REMOTE_FILEPATH/&lt;/span&gt;&lt;br&gt;&lt;font style=&quot;font-size: 15px;&quot;&gt;mysql-setup&lt;/font&gt;&lt;/font&gt;" style="rounded=1;whiteSpace=wrap;html=1;fontSize=15;verticalAlign=top;container=0;" vertex="1" parent="aGkAZ5vbo31I6YQZTo5o-2">
          <mxGeometry width="150" height="160" as="geometry" />
        </mxCell>
        <mxCell id="aGkAZ5vbo31I6YQZTo5o-4" value="" style="shape=image;aspect=fixed;image=data:image/png,iVBORw0KGgoAAAANSUhEUgAAAEwAAABMCAYAAADHl1ErAAAACXBIWXMAAA7DAAAOwwHHb6hkAAAAGXRFWHRTb2Z0d2FyZQB3d3cuaW5rc2NhcGUub3Jnm+48GgAABFtJREFUeJztnE9oY0Ucx7+/eS9Nk31/8qfb1tpD2hBCuoXSVdLa2ItIQdiLiHqXFQ8LnmT9gwdBBC/iwZt48ehFT1JI78WjHgrWVlawbG2bIilpTZOXjId9OWleM8mbJp2dDzwozB9+/TDze5M38x5xziELIkoBuCvQ5C8Av3LOPUkhDYwpo1MiomQy+X4+n7+fzWazRNRTu/Pz8+ru7u7vRPQy5/xvGbENSujCiCgzOTn5bbFYfH5mZiYu2Ny1LOvu5ubmGoAfw44tDEIVlkgk3snn8w9LpdK8aUoZvEPHJKLC9PT09/F4vD5gX6xYLGbm5uacUCIbUUwA0UKh8Gwul7OHHcxNgA07gJuGFiaIFiaIFiaIFiaIFiaIFiaIFiaIFiaIFiaIFiaIFiaIFiaIFiaIFiaIFiaIFiaIFiaIFiaIFiYIA9BsNBoju9M8ajDO+c7+/v4vjUZj2LHcCBgAHB0dvVkul3+uVqvtYQc06pgAwDk/JqLS1tbWB7FY7AXGWMQ0TS8SiaDZbN7q5cAKEXEAsSd/Ut8nXC4vL2NEdN5ve9lQWKd3iCgH4DcA73HOvwil0xFE3yUF0cIEUfOIjQBENJZMJj+xLGutWx3Oeater393cnLy9VMtzHGce7Ozs5+trq7eSaVSRlDdcrkcAaCWsImJiR9s257usbqxtLSUXVhYSPVSmYjGAMWmpG3bUxsbG6uSuidAvaQv7YQz+Qd1lRIm80Q4fFdKCYMeYcLIHGIEyEn6rxLR7YDyOoB/AsovAFwGlNcANP+vYGpqyro6vP7ojLAwhRGAKoCSf107Z2dnJxK7D12YAcAF8BDANwH1bgEYCyi3r4jLRZdU4rru5wCCRnffyBhhHRpXvPYi7ZWYTCZTk9V3B530e+2YcyXvkjJRT1i7Le8Je+eNPKWEXVxcbB8eHgYtWQZBWtIfGqenpx9vb28zx3HuRaPRUNdkx8fHUUAxYfzJj8kP/UsKSk3J60ALE0QLE0QLE0QLE0QLE0QLE0SpdVi/RKPRO4lE4lPTNP/znQ0i8jzP81qt1uNKpfLgqRZGRPF0Ov3V4uLiK8vLy88YRve93J2dndNKpfKlUsJs237ddd13GWOtXurPz8/fXllZKdi2feW3bsbHx8cBuEoJi0Qi2fX19RcdJ/xvjRARA8CUSvptic93GGMMgKGUMABtWZu5/jN9tYQRUUuiMCWnZE/Jvh+IyABgyEj6a0TU7aln101YnzMAQf90FUDXPBWPxy1ZI4wxRgAiYQqrAvgDwBv+de3U6/U9iVMSpmlSaMI454+J6CUAQQfUum7C+iQDypjfvhumaZrPAcgF1BkIzjkLdUpyzh8BeBRmnyI4jvM25/wtGX13Du8olfQhcVnho9ayAsE3jIEgIhiGodYIa7fb0tZhPmoJ8zzvp729vT9l9O2PMCO0d41GhXQ6/ZplWR+lUqnJzhGlMKjVamMHBwcPlBPWgYgS8Lf3Q6T2L3fhFhK29ioTAAAAAElFTkSuQmCC;imageBackground=none;container=0;" vertex="1" parent="aGkAZ5vbo31I6YQZTo5o-2">
          <mxGeometry x="30" y="50" width="60" height="60" as="geometry" />
        </mxCell>
        <mxCell id="aGkAZ5vbo31I6YQZTo5o-5" value="" style="group" vertex="1" connectable="0" parent="aGkAZ5vbo31I6YQZTo5o-2">
          <mxGeometry x="100" y="80" width="40" height="70" as="geometry" />
        </mxCell>
        <mxCell id="aGkAZ5vbo31I6YQZTo5o-6" value="" style="whiteSpace=wrap;html=1;verticalAlign=bottom;" vertex="1" parent="aGkAZ5vbo31I6YQZTo5o-5">
          <mxGeometry width="40" height="70" as="geometry" />
        </mxCell>
        <mxCell id="aGkAZ5vbo31I6YQZTo5o-7" value="" style="sketch=0;pointerEvents=1;shadow=0;dashed=0;html=1;strokeColor=none;fillColor=#434445;aspect=fixed;labelPosition=center;verticalLabelPosition=bottom;verticalAlign=top;align=center;outlineConnect=0;shape=mxgraph.vvd.guest_agent_customization;strokeWidth=0;" vertex="1" parent="aGkAZ5vbo31I6YQZTo5o-5">
          <mxGeometry x="3" y="3" width="33.7" height="31" as="geometry" />
        </mxCell>
        <mxCell id="aGkAZ5vbo31I6YQZTo5o-8" value="&lt;span style=&quot;color: rgb(0, 0, 0); font-family: Helvetica; font-style: normal; font-variant-ligatures: normal; font-variant-caps: normal; font-weight: 400; letter-spacing: normal; orphans: 2; text-indent: 0px; text-transform: none; widows: 2; word-spacing: 0px; -webkit-text-stroke-width: 0px; background-color: rgb(255, 255, 255); text-decoration-thickness: initial; text-decoration-style: initial; text-decoration-color: initial; float: none; display: inline !important;&quot;&gt;.env&lt;br&gt;&lt;font style=&quot;font-size: 10px;&quot;&gt;«file»&lt;/font&gt;&lt;br&gt;&lt;/span&gt;" style="text;whiteSpace=wrap;html=1;align=center;verticalAlign=top;spacing=0;" vertex="1" parent="aGkAZ5vbo31I6YQZTo5o-5">
          <mxGeometry x="4.850000000000023" y="34" width="30" height="36" as="geometry" />
        </mxCell>
        <mxCell id="aGkAZ5vbo31I6YQZTo5o-9" value="Docker Container" style="swimlane;whiteSpace=wrap;html=1;" vertex="1" parent="1">
          <mxGeometry x="425" y="1430" width="200" height="270" as="geometry" />
        </mxCell>
        <mxCell id="aGkAZ5vbo31I6YQZTo5o-10" value="" style="group" vertex="1" connectable="0" parent="aGkAZ5vbo31I6YQZTo5o-9">
          <mxGeometry x="70" y="170" width="60" height="80" as="geometry" />
        </mxCell>
        <mxCell id="aGkAZ5vbo31I6YQZTo5o-11" value="Volumes" style="whiteSpace=wrap;html=1;verticalAlign=bottom;" vertex="1" parent="aGkAZ5vbo31I6YQZTo5o-10">
          <mxGeometry width="60" height="80" as="geometry" />
        </mxCell>
        <mxCell id="aGkAZ5vbo31I6YQZTo5o-12" value="" style="shape=cylinder3;whiteSpace=wrap;html=1;boundedLbl=1;backgroundOutline=1;size=15;dashed=1;dashPattern=8 8;" vertex="1" parent="aGkAZ5vbo31I6YQZTo5o-10">
          <mxGeometry x="7.5" y="20" width="45" height="40" as="geometry" />
        </mxCell>
        <mxCell id="aGkAZ5vbo31I6YQZTo5o-13" value="AGE" style="whiteSpace=wrap;html=1;" vertex="1" parent="aGkAZ5vbo31I6YQZTo5o-9">
          <mxGeometry x="60" y="70" width="80" height="65" as="geometry" />
        </mxCell>
        <mxCell id="aGkAZ5vbo31I6YQZTo5o-14" value="" style="endArrow=open;html=1;rounded=0;startSize=14;endSize=14;sourcePerimeterSpacing=8;targetPerimeterSpacing=8;curved=1;exitX=0.5;exitY=1;exitDx=0;exitDy=0;endFill=0;entryX=0.5;entryY=0;entryDx=0;entryDy=0;" edge="1" parent="aGkAZ5vbo31I6YQZTo5o-9" source="aGkAZ5vbo31I6YQZTo5o-13" target="aGkAZ5vbo31I6YQZTo5o-11">
          <mxGeometry width="50" height="50" relative="1" as="geometry">
            <mxPoint x="110" y="260" as="sourcePoint" />
            <mxPoint x="100" y="160" as="targetPoint" />
          </mxGeometry>
        </mxCell>
        <mxCell id="aGkAZ5vbo31I6YQZTo5o-16" value="" style="endArrow=open;html=1;rounded=0;startSize=14;endSize=14;sourcePerimeterSpacing=8;targetPerimeterSpacing=8;curved=1;exitX=0.5;exitY=1;exitDx=0;exitDy=0;endFill=0;" edge="1" parent="1" source="aGkAZ5vbo31I6YQZTo5o-11" target="qSU5AdETewmPxIVoKtzy-23">
          <mxGeometry width="50" height="50" relative="1" as="geometry">
            <mxPoint x="235" y="1655" as="sourcePoint" />
            <mxPoint x="531.25" y="1745" as="targetPoint" />
          </mxGeometry>
        </mxCell>
        <mxCell id="aGkAZ5vbo31I6YQZTo5o-17" style="edgeStyle=none;curved=1;rounded=0;orthogonalLoop=1;jettySize=auto;html=1;entryX=1;entryY=0.25;entryDx=0;entryDy=0;endArrow=open;startSize=14;endSize=14;sourcePerimeterSpacing=8;targetPerimeterSpacing=8;exitX=0;exitY=0.5;exitDx=0;exitDy=0;" edge="1" parent="1" source="aGkAZ5vbo31I6YQZTo5o-18" target="aGkAZ5vbo31I6YQZTo5o-8">
          <mxGeometry relative="1" as="geometry">
            <Array as="points">
              <mxPoint x="780" y="1233" />
            </Array>
          </mxGeometry>
        </mxCell>
        <mxCell id="aGkAZ5vbo31I6YQZTo5o-18" value="Configure Manually" style="ellipse;whiteSpace=wrap;html=1;aspect=fixed;" vertex="1" parent="1">
          <mxGeometry x="815" y="1180" width="80" height="80" as="geometry" />
        </mxCell>
        <mxCell id="aGkAZ5vbo31I6YQZTo5o-19" style="edgeStyle=none;curved=1;rounded=0;orthogonalLoop=1;jettySize=auto;html=1;endArrow=open;startSize=14;endSize=14;sourcePerimeterSpacing=8;targetPerimeterSpacing=8;exitX=1;exitY=0.5;exitDx=0;exitDy=0;" edge="1" parent="1" source="aGkAZ5vbo31I6YQZTo5o-20">
          <mxGeometry relative="1" as="geometry">
            <mxPoint x="190" y="1200" as="targetPoint" />
            <Array as="points">
              <mxPoint x="400" y="1550" />
            </Array>
          </mxGeometry>
        </mxCell>
        <mxCell id="aGkAZ5vbo31I6YQZTo5o-20" value="start&lt;br style=&quot;border-color: var(--border-color); color: rgb(51, 51, 51);&quot;&gt;&lt;span style=&quot;border-color: var(--border-color); color: rgb(51, 51, 51);&quot;&gt;docker&lt;/span&gt;&lt;br style=&quot;border-color: var(--border-color); color: rgb(51, 51, 51);&quot;&gt;&lt;span style=&quot;border-color: var(--border-color); color: rgb(51, 51, 51);&quot;&gt;containter&lt;/span&gt;" style="ellipse;whiteSpace=wrap;html=1;aspect=fixed;" vertex="1" parent="1">
          <mxGeometry x="330" y="1140" width="80" height="80" as="geometry" />
        </mxCell>
        <mxCell id="aGkAZ5vbo31I6YQZTo5o-21" style="edgeStyle=none;curved=1;rounded=0;orthogonalLoop=1;jettySize=auto;html=1;entryX=0.5;entryY=0;entryDx=0;entryDy=0;endArrow=open;startSize=14;endSize=14;sourcePerimeterSpacing=8;targetPerimeterSpacing=8;" edge="1" parent="1" source="aGkAZ5vbo31I6YQZTo5o-3" target="aGkAZ5vbo31I6YQZTo5o-20">
          <mxGeometry relative="1" as="geometry">
            <Array as="points">
              <mxPoint x="540" y="1320" />
            </Array>
          </mxGeometry>
        </mxCell>
        <mxCell id="qSU5AdETewmPxIVoKtzy-34" value="" style="group" vertex="1" connectable="0" parent="1">
          <mxGeometry x="514" y="1770" width="98" height="116" as="geometry" />
        </mxCell>
        <mxCell id="qSU5AdETewmPxIVoKtzy-32" value="" style="group" vertex="1" connectable="0" parent="qSU5AdETewmPxIVoKtzy-34">
          <mxGeometry x="28" y="66" width="70" height="50" as="geometry" />
        </mxCell>
        <mxCell id="qSU5AdETewmPxIVoKtzy-30" value="" style="sketch=0;pointerEvents=1;shadow=0;dashed=0;html=1;strokeColor=none;fillColor=#808080;labelPosition=center;verticalLabelPosition=bottom;verticalAlign=top;align=center;outlineConnect=0;shape=mxgraph.veeam2.folder;" vertex="1" parent="qSU5AdETewmPxIVoKtzy-32">
          <mxGeometry width="70" height="50" as="geometry" />
        </mxCell>
        <mxCell id="qSU5AdETewmPxIVoKtzy-48" value="" style="group" vertex="1" connectable="0" parent="qSU5AdETewmPxIVoKtzy-32">
          <mxGeometry x="32" y="10" width="29" height="38" as="geometry" />
        </mxCell>
        <mxCell id="qSU5AdETewmPxIVoKtzy-44" value="" style="whiteSpace=wrap;html=1;shape=mxgraph.basic.document" vertex="1" parent="qSU5AdETewmPxIVoKtzy-48">
          <mxGeometry width="29" height="38" as="geometry" />
        </mxCell>
        <mxCell id="qSU5AdETewmPxIVoKtzy-45" value="key-pairs" style="text;whiteSpace=wrap;html=1;verticalAlign=middle;align=center;spacing=0;fontSize=9;fillColor=none;" vertex="1" parent="qSU5AdETewmPxIVoKtzy-48">
          <mxGeometry x="1.75" y="16" width="24" height="20" as="geometry" />
        </mxCell>
        <mxCell id="qSU5AdETewmPxIVoKtzy-46" value="" style="sketch=0;pointerEvents=1;shadow=0;dashed=0;html=1;strokeColor=none;fillColor=#006633;labelPosition=center;verticalLabelPosition=bottom;verticalAlign=top;outlineConnect=0;align=center;shape=mxgraph.office.security.key_permissions;fontSize=10;rotation=90;" vertex="1" parent="qSU5AdETewmPxIVoKtzy-48">
          <mxGeometry x="12.75" y="3" width="10" height="20" as="geometry" />
        </mxCell>
        <mxCell id="qSU5AdETewmPxIVoKtzy-47" value="" style="sketch=0;pointerEvents=1;shadow=0;dashed=0;html=1;strokeColor=none;fillColor=#FF3333;labelPosition=center;verticalLabelPosition=bottom;verticalAlign=top;outlineConnect=0;align=center;shape=mxgraph.office.security.key_permissions;fontSize=10;rotation=90;" vertex="1" parent="qSU5AdETewmPxIVoKtzy-48">
          <mxGeometry x="6.75" y="-3" width="10" height="20" as="geometry" />
        </mxCell>
        <mxCell id="qSU5AdETewmPxIVoKtzy-21" value="" style="sketch=0;pointerEvents=1;shadow=0;dashed=0;html=1;strokeColor=none;fillColor=#808080;labelPosition=center;verticalLabelPosition=bottom;verticalAlign=top;align=center;outlineConnect=0;shape=mxgraph.veeam2.folder;" vertex="1" parent="qSU5AdETewmPxIVoKtzy-34">
          <mxGeometry x="38.46153846153845" y="16" width="21.538461538461537" height="15.999999999999996" as="geometry" />
        </mxCell>
        <mxCell id="qSU5AdETewmPxIVoKtzy-22" value="" style="sketch=0;pointerEvents=1;shadow=0;dashed=0;html=1;strokeColor=none;fillColor=#808080;labelPosition=center;verticalLabelPosition=bottom;verticalAlign=top;align=center;outlineConnect=0;shape=mxgraph.veeam2.folder;" vertex="1" parent="qSU5AdETewmPxIVoKtzy-34">
          <mxGeometry x="38.46153846153845" y="40" width="21.538461538461537" height="15.999999999999996" as="geometry" />
        </mxCell>
        <mxCell id="qSU5AdETewmPxIVoKtzy-23" value="" style="sketch=0;pointerEvents=1;shadow=0;dashed=0;html=1;strokeColor=none;fillColor=#808080;labelPosition=center;verticalLabelPosition=bottom;verticalAlign=top;align=center;outlineConnect=0;shape=mxgraph.veeam2.folder;" vertex="1" parent="qSU5AdETewmPxIVoKtzy-34">
          <mxGeometry width="21.538461538461537" height="15.999999999999996" as="geometry" />
        </mxCell>
        <mxCell id="qSU5AdETewmPxIVoKtzy-14" value="" style="endArrow=none;html=1;rounded=0;edgeStyle=elbowEdgeStyle;elbow=vertical;" edge="1" parent="qSU5AdETewmPxIVoKtzy-34" source="qSU5AdETewmPxIVoKtzy-21" target="qSU5AdETewmPxIVoKtzy-23">
          <mxGeometry width="50" height="50" relative="1" as="geometry">
            <mxPoint x="20" y="26" as="sourcePoint" />
            <mxPoint x="10" y="24" as="targetPoint" />
            <Array as="points">
              <mxPoint x="10" y="26" />
            </Array>
          </mxGeometry>
        </mxCell>
        <mxCell id="qSU5AdETewmPxIVoKtzy-24" value="" style="endArrow=none;html=1;rounded=0;" edge="1" parent="qSU5AdETewmPxIVoKtzy-34" source="qSU5AdETewmPxIVoKtzy-22">
          <mxGeometry width="50" height="50" relative="1" as="geometry">
            <mxPoint x="38.46153846153845" y="32" as="sourcePoint" />
            <mxPoint x="10" y="26" as="targetPoint" />
            <Array as="points">
              <mxPoint x="10" y="48" />
            </Array>
          </mxGeometry>
        </mxCell>
        <mxCell id="qSU5AdETewmPxIVoKtzy-33" value="" style="endArrow=none;html=1;rounded=0;jumpSize=0;" edge="1" parent="qSU5AdETewmPxIVoKtzy-34">
          <mxGeometry width="50" height="50" relative="1" as="geometry">
            <mxPoint x="28" y="96" as="sourcePoint" />
            <mxPoint x="10" y="46" as="targetPoint" />
            <Array as="points">
              <mxPoint x="10" y="96" />
            </Array>
          </mxGeometry>
        </mxCell>
        <mxCell id="qSU5AdETewmPxIVoKtzy-49" value="" style="group" vertex="1" connectable="0" parent="1">
          <mxGeometry x="421" y="1836" width="70" height="50" as="geometry" />
        </mxCell>
        <mxCell id="qSU5AdETewmPxIVoKtzy-36" value="" style="sketch=0;pointerEvents=1;shadow=0;dashed=0;html=1;strokeColor=none;fillColor=#808080;labelPosition=center;verticalLabelPosition=bottom;verticalAlign=top;align=center;outlineConnect=0;shape=mxgraph.veeam2.folder;" vertex="1" parent="qSU5AdETewmPxIVoKtzy-49">
          <mxGeometry width="70" height="50" as="geometry" />
        </mxCell>
        <mxCell id="qSU5AdETewmPxIVoKtzy-42" value="" style="group" vertex="1" connectable="0" parent="qSU5AdETewmPxIVoKtzy-49">
          <mxGeometry x="30" y="10" width="35.5" height="38" as="geometry" />
        </mxCell>
        <mxCell id="qSU5AdETewmPxIVoKtzy-38" value="" style="whiteSpace=wrap;html=1;shape=mxgraph.basic.document" vertex="1" parent="qSU5AdETewmPxIVoKtzy-42">
          <mxGeometry x="3.25" width="29" height="38" as="geometry" />
        </mxCell>
        <mxCell id="qSU5AdETewmPxIVoKtzy-40" value="public-key" style="text;whiteSpace=wrap;html=1;verticalAlign=middle;align=center;spacing=0;fontSize=9;fillColor=none;" vertex="1" parent="qSU5AdETewmPxIVoKtzy-42">
          <mxGeometry y="15" width="35.5" height="20" as="geometry" />
        </mxCell>
        <mxCell id="qSU5AdETewmPxIVoKtzy-41" value="" style="sketch=0;pointerEvents=1;shadow=0;dashed=0;html=1;strokeColor=none;fillColor=#006633;labelPosition=center;verticalLabelPosition=bottom;verticalAlign=top;outlineConnect=0;align=center;shape=mxgraph.office.security.key_permissions;fontSize=10;rotation=90;" vertex="1" parent="qSU5AdETewmPxIVoKtzy-42">
          <mxGeometry x="11.25" y="-1" width="10" height="20" as="geometry" />
        </mxCell>
        <mxCell id="qSU5AdETewmPxIVoKtzy-50" value="" style="endArrow=none;html=1;rounded=0;jumpSize=0;entryX=1.099;entryY=0.267;entryDx=0;entryDy=0;entryPerimeter=0;" edge="1" parent="1" target="qSU5AdETewmPxIVoKtzy-40">
          <mxGeometry width="50" height="50" relative="1" as="geometry">
            <mxPoint x="524" y="1866" as="sourcePoint" />
            <mxPoint x="460" y="1866" as="targetPoint" />
          </mxGeometry>
        </mxCell>
        <mxCell id="qSU5AdETewmPxIVoKtzy-51" value="" style="shape=internalStorage;whiteSpace=wrap;html=1;backgroundOutline=1;" vertex="1" parent="1">
          <mxGeometry x="320" y="2110" width="190" height="200" as="geometry" />
        </mxCell>
        <mxCell id="qSU5AdETewmPxIVoKtzy-52" value="Compose Project «directory»" style="text;html=1;strokeColor=none;fillColor=none;align=center;verticalAlign=middle;whiteSpace=wrap;rounded=0;fontSize=14;fontStyle=3" vertex="1" parent="1">
          <mxGeometry x="360" y="2280" width="120" height="30" as="geometry" />
        </mxCell>
        <mxCell id="qSU5AdETewmPxIVoKtzy-64" value=".env" style="whiteSpace=wrap;html=1;shape=mxgraph.basic.document" vertex="1" parent="1">
          <mxGeometry x="460" y="2185" width="40" height="50" as="geometry" />
        </mxCell>
      </root>
    </mxGraphModel>
  </diagram>
</mxfile>
